<svg width="20" height="20" viewBox="0 0 20 20" fill="none" xmlns="http://www.w3.org/2000/svg">
<path d="M5.00323 8.33333V4.16667M9.16989 8.33333V4.16667M13.3366 8.33333V4.58333" stroke="#154CE4" stroke-width="1.25" stroke-linecap="round" stroke-linejoin="round"/>
<path d="M4.18007 14.1667C2.99678 14.1667 2.40513 14.1667 2.03752 13.8006C1.66992 13.4344 1.66992 12.8452 1.66992 11.6667V6.66667C1.66992 5.48816 1.66992 4.8989 2.03752 4.53278C2.40513 4.16667 2.99678 4.16667 4.18007 4.16667H10.0837C12.9785 4.16667 14.4258 4.16667 15.5335 4.7552C16.3492 5.18861 17.0288 5.83792 17.4976 6.63155C18.1341 7.70926 18.1943 9.1495 18.3149 12.03C18.3473 12.8065 18.3636 13.1948 18.2118 13.4885C18.1003 13.7045 17.9279 13.8834 17.7159 14.0034C17.4275 14.1667 17.0374 14.1667 16.2571 14.1667H15.8366M7.50326 14.1667H12.5032" stroke="#154CE4" stroke-width="1.25" stroke-linecap="round" stroke-linejoin="round"/>
<path d="M5.83659 15.8333C6.75706 15.8333 7.50326 15.0872 7.50326 14.1667C7.50326 13.2462 6.75706 12.5 5.83659 12.5C4.91611 12.5 4.16992 13.2462 4.16992 14.1667C4.16992 15.0872 4.91611 15.8333 5.83659 15.8333Z" stroke="#154CE4" stroke-width="1.25"/>
<path d="M14.1699 15.8333C15.0904 15.8333 15.8366 15.0872 15.8366 14.1667C15.8366 13.2462 15.0904 12.5 14.1699 12.5C13.2494 12.5 12.5032 13.2462 12.5032 14.1667C12.5032 15.0872 13.2494 15.8333 14.1699 15.8333Z" stroke="#154CE4" stroke-width="1.25"/>
<path d="M1.66339 8.33408H12.8034C13.3259 8.33408 13.5034 8.64008 13.9034 9.12008C14.3634 9.57008 14.6744 9.88567 15.1034 9.95008C15.7034 10.0401 17.9234 9.99508 17.9234 9.99508" stroke="#154CE4" stroke-width="1.25" stroke-linecap="round"/>
</svg>
